<svg width="24" height="24" viewBox="0 0 24 24" fill="none" xmlns="http://www.w3.org/2000/svg">
<path d="M23.1065 0.893318C22.8543 0.642874 22.5379 0.466813 22.1921 0.384484C21.8463 0.302155 21.4845 0.316745 21.1465 0.426651L1.63984 6.93332C1.27807 7.04795 0.958381 7.26723 0.721156 7.56344C0.483932 7.85966 0.339811 8.21953 0.306997 8.59761C0.274183 8.97569 0.354146 9.35501 0.536789 9.68767C0.719432 10.0203 0.996561 10.2914 1.33317 10.4667L9.42651 14.4667L13.4265 22.5867C13.5873 22.9045 13.8333 23.1713 14.1371 23.3574C14.4408 23.5434 14.7903 23.6412 15.1465 23.64H15.2798C15.6613 23.6119 16.0255 23.4697 16.3251 23.2319C16.6247 22.9942 16.8459 22.6718 16.9598 22.3067L23.5598 2.85332C23.6777 2.51723 23.6977 2.15457 23.6174 1.80758C23.5371 1.46059 23.36 1.14353 23.1065 0.893318ZM2.46651 8.77332L19.4932 3.09332L10.0398 12.5467L2.46651 8.77332ZM15.2398 21.5333L11.4532 13.96L20.9065 4.50665L15.2398 21.5333Z" fill="#001E37"/>
</svg>
