<svg width="31" height="31" viewBox="0 0 31 31" fill="none" xmlns="http://www.w3.org/2000/svg">
<path d="M23.1167 24.1672L20.7917 13.5755L25.3125 9.05469C27.25 7.11719 27.8958 4.53385 27.25 3.24219C25.9583 2.59635 23.375 3.24219 21.4375 5.17969L16.9167 9.70052L6.325 7.37552C5.67917 7.24635 5.1625 7.50469 4.90417 8.02135L4.51667 8.66719C4.25833 9.31302 4.3875 9.95885 4.90417 10.3464L11.75 14.8672L9.16667 18.7422H5.29167L4 20.0339L7.875 22.6172L10.4583 26.4922L11.75 25.2005V21.3255L15.625 18.7422L20.1458 25.588C20.5333 26.1047 21.1792 26.2339 21.825 25.9755L22.4708 25.7172C22.9875 25.3297 23.2458 24.813 23.1167 24.1672Z" stroke="black" stroke-width="1.5" stroke-linecap="round" stroke-linejoin="round"/>
</svg>
