<svg width="25" height="24" viewBox="0 0 25 24" fill="none" xmlns="http://www.w3.org/2000/svg">
<path d="M2.5 24C1.8125 24 1.22417 23.7528 0.735 23.2585C0.245833 22.7642 0.000833333 22.1693 0 21.4737V7.57895C0 6.88421 0.245 6.28968 0.735 5.79537C1.225 5.30105 1.81333 5.05347 2.5 5.05263H7.5V2.52632C7.5 1.83158 7.745 1.23705 8.235 0.742737C8.725 0.248421 9.31333 0.000842105 10 0H15C15.6875 0 16.2762 0.247579 16.7662 0.742737C17.2562 1.23789 17.5008 1.83242 17.5 2.52632V5.05263H22.5C23.1875 5.05263 23.7762 5.30021 24.2662 5.79537C24.7562 6.29053 25.0008 6.88505 25 7.57895V21.4737C25 22.1684 24.7554 22.7634 24.2662 23.2585C23.7771 23.7537 23.1883 24.0008 22.5 24H2.5ZM10 5.05263H15V2.52632H10V5.05263ZM22.5 16.4211H16.25V18.9474H8.75V16.4211H2.5V21.4737H22.5V16.4211ZM11.25 16.4211H13.75V13.8947H11.25V16.4211ZM2.5 13.8947H8.75V11.3684H16.25V13.8947H22.5V7.57895H2.5V13.8947Z" fill="#0D8478"/>
</svg>
