<svg width="30" height="30" viewBox="0 0 30 30" fill="none" xmlns="http://www.w3.org/2000/svg">
<path d="M1 12.1999C1 7.55615 4.7562 3.8 9.4 3.8L8.2002 6.19957M29 17.7998C29 22.4435 25.2438 26.1997 20.6 26.1997L21.7998 23.8001M22 7.29995H22.0126M8 22.6997H8.0126M22.35 1.72243C24.912 0.665447 27.1688 1.01684 28.391 1.24084C28.7396 1.30524 29 1.64683 29 2.04303V11.0869C29 11.5601 28.6332 11.9129 28.216 11.8401C26.9616 11.6175 24.7958 11.3431 22.35 12.3511C19.7208 13.4361 17.0748 13.6391 15.63 13.5943C15.2716 13.5831 15 13.2443 15 12.8383V3.7944C15 3.32821 15.357 2.96141 15.7714 2.96841C17.2414 2.99641 19.8034 2.77242 22.35 1.72243ZM8.35 17.1222C10.912 16.0652 13.1674 16.4166 14.391 16.6406C14.7396 16.705 15 17.0466 15 17.4428V26.4867C15 26.9599 14.6332 27.3127 14.216 27.2399C12.9616 27.0173 10.7958 26.7429 8.35 27.7523C5.7208 28.8358 3.0748 29.0402 1.63 28.994C1.2716 28.9828 1 28.644 1 28.238V19.1928C1 18.7266 1.357 18.3598 1.7714 18.3668C3.2414 18.3948 5.8034 18.1722 8.35 17.1222Z" stroke="#0D8478" stroke-width="1.5" stroke-linecap="round" stroke-linejoin="round"/>
</svg>
