<svg width="243" height="183" viewBox="0 0 243 183" fill="none" xmlns="http://www.w3.org/2000/svg">
<path d="M119.123 65.1227C132.295 89.622 122.245 124.218 115.574 138.454C154.438 85.7935 122.259 43.9691 108.541 21.9999C108.541 21.9999 116.968 22.4077 153.856 45.4982C105.461 -1.58486 73.5267 -0.893747 75.7642 1.23904C82.8281 7.97262 102.658 34.4985 119.123 65.1227Z" fill="#02C7B3"/>
<path d="M165.907 62.6384C175.683 88.4904 162.682 127.412 153.841 140.187C192.118 90.8654 175.623 42.2933 163.711 26.0203C151.8 9.74728 131.558 -1.69832 133.515 0.723293C139.693 8.36871 153.686 30.3235 165.907 62.6384Z" fill="#0D8478"/>
<path d="M191.764 106.964C173.691 132.266 130.776 151.204 118.161 157.011C202.88 131.372 205.755 99.4326 210.997 85.3056C216.238 71.1785 216.962 56.0673 216.268 58.2231C214.078 65.0292 208.874 83.011 191.764 106.964Z" fill="#0D8478"/>
<path d="M210.203 55.6952C210.361 56.077 210.484 56.4384 210.572 56.7778C210.45 56.4144 210.328 56.0536 210.203 55.6952C206.28 46.1756 181.394 24.0279 168.177 16.5595C141.446 1.45561 144.874 5.29965 136.087 1.22522C134.587 0.529367 153.822 2.58315 164.59 6.6269C175.244 10.6279 198.579 22.1741 210.203 55.6952Z" fill="#3B6A91"/>
<path d="M69.3124 67.6498C92.3768 85.5761 97.1992 123.029 96.7273 139.514C112.213 72.521 63.4498 46.0246 40.9218 30.757C40.9218 30.757 49.2543 27.5783 94.6951 34.1051C28.0153 9.43297 -2.62207 23.6255 0.442201 24.7239C10.1166 28.1919 40.4818 45.2419 69.3124 67.6498Z" fill="#02C7B3"/>
<path d="M235.096 49.4307L214.026 85.5747L222.21 83.2649C221.571 85.1295 220.906 87.0529 220.161 88.9875C219.769 90.0046 219.359 91.1026 218.921 92.2717C212.28 110.022 199.503 144.167 154.639 160.715C111.23 176.726 78.052 155.497 72.0362 151.432C110.14 179.997 215.627 199.91 235.263 84.7177L243 92.2797L235.096 49.4307Z" fill="#02C7B3"/>
<path d="M30.9697 126.703L39.3609 99.1977L51.8174 125.424L41.8619 120.235L30.9697 126.703Z" fill="#3B6A91"/>
<path d="M173.13 172.609C64.1378 213.364 36.9493 120.62 36.9493 120.62C36.9493 120.62 37.9932 115.993 44.6712 120.837C86.5467 191.322 140.095 183.605 173.13 172.609Z" fill="#3B6A91"/>
<path d="M195.018 64.551C192.671 64.551 190.624 63.3199 189.611 61.5165H195.018L195.956 59.7825H188.991C188.944 59.4964 188.916 59.2103 188.916 58.9155C188.916 58.6207 188.944 58.3346 188.991 58.0485H195.018L195.956 56.3145H189.611C190.125 55.3999 190.901 54.6332 191.854 54.0981C192.808 53.563 193.902 53.28 195.018 53.28C196.529 53.28 197.918 53.7915 198.988 54.6412L200.65 53.1066C199.104 51.8216 197.097 51.1111 195.018 51.1125C191.338 51.1125 188.221 53.28 187.039 56.3145H183.753L182.814 58.0485H186.625C186.569 58.3346 186.569 58.6207 186.569 58.9155C186.569 59.2103 186.569 59.4964 186.625 59.7825H183.753L182.814 61.5165H187.039C188.221 64.551 191.338 66.7186 195.018 66.7186C197.186 66.7186 199.157 65.9643 200.65 64.7244L198.979 63.1898C197.918 64.0395 196.538 64.551 195.018 64.551Z" fill="#0D8478"/>
<path d="M146.152 69.6912V65.48H140.888V63.3744H146.152V61.2688H140.888V59.1632H145.179L139.836 50.7409H142.336L147.205 58.4263L152.074 50.7409H154.575L149.232 59.1632H153.522V61.2688H148.258V63.3744H153.522V65.48H148.258V69.6912H146.152Z" fill="#02C7B3"/>
<path d="M91.4072 62.0499H93.6366C93.6366 63.3876 95.1638 64.5271 96.9808 64.5271C98.7978 64.5271 100.325 63.3876 100.325 62.0499C100.325 60.6875 99.1656 60.1921 96.7132 59.5356C94.35 58.8792 91.4072 58.0617 91.4072 54.6185C91.4072 52.4014 93.0458 50.5188 95.3087 49.8871V47.187H98.6528V49.8871C100.916 50.5188 102.554 52.4014 102.554 54.6185H100.325C100.325 53.2808 98.7978 52.1413 96.9808 52.1413C95.1638 52.1413 93.6366 53.2808 93.6366 54.6185C93.6366 55.9809 94.7959 56.4763 97.2483 57.1328C99.6115 57.7892 102.554 58.6067 102.554 62.0499C102.554 64.267 100.916 66.1496 98.6528 66.7813V69.4814H95.3087V66.7813C93.0458 66.1496 91.4072 64.267 91.4072 62.0499Z" fill="#02C7B3"/>
</svg>
