<svg width="212" height="44" viewBox="0 0 212 44" fill="none" xmlns="http://www.w3.org/2000/svg">
<path d="M25.1729 15.589C27.9562 21.3627 25.8327 29.5158 24.4229 32.8707C32.6355 20.4604 25.8355 10.6039 22.9369 5.4265C22.9369 5.4265 24.7175 5.5226 32.5124 10.9642C22.2859 -0.131615 15.5378 0.0312556 16.0106 0.53388C17.5033 2.12075 21.6936 8.37196 25.1729 15.589Z" fill="#02C7B3"/>
<path d="M35.0578 15.0036C37.1236 21.096 34.3763 30.2685 32.5081 33.2791C40.5967 21.6557 37.111 10.2089 34.5939 6.37396C32.0768 2.53897 27.7994 -0.158354 28.213 0.412335C29.5184 2.21409 32.4754 7.38807 35.0578 15.0036Z" fill="#0D8478"/>
<path d="M40.5213 25.4497C36.7022 31.4123 27.6338 35.8754 24.968 37.2439C42.8702 31.2018 43.4779 23.6747 44.5854 20.3455C45.693 17.0162 45.846 13.455 45.6994 13.9631C45.2365 15.567 44.1369 19.8047 40.5213 25.4497Z" fill="#0D8478"/>
<path d="M44.4183 13.3674C44.4516 13.4574 44.4777 13.5425 44.4963 13.6225C44.4706 13.5369 44.4446 13.4518 44.4183 13.3674C43.5893 11.124 38.3306 5.90451 35.5376 4.14448C29.8891 0.585011 30.6134 1.49092 28.7567 0.530716C28.4396 0.366728 32.5042 0.850733 34.7796 1.8037C37.031 2.7466 41.9619 5.46763 44.4183 13.3674Z" fill="#3B6A91"/>
<path d="M14.6466 16.1846C19.5205 20.4092 20.5395 29.2354 20.4398 33.1205C23.712 17.3326 13.4078 11.0883 8.64732 7.49025C8.64732 7.49025 10.4081 6.74115 20.0103 8.27928C5.92002 2.46492 -0.55408 5.80959 0.0934415 6.06846C2.13777 6.88575 8.55435 10.9038 14.6466 16.1846Z" fill="#02C7B3"/>
<path d="M49.6787 11.891L45.2264 20.4088L46.9565 19.8643C46.8216 20.3038 46.6809 20.7571 46.5235 21.2131C46.4407 21.4528 46.3539 21.7116 46.2615 21.9871C44.858 26.1701 42.1581 34.2171 32.6777 38.1168C23.5048 41.89 16.4939 36.8871 15.2227 35.9292C23.2745 42.6608 45.565 47.3537 49.7147 20.2075L51.3489 21.989L49.6787 11.891Z" fill="#001E37"/>
<path d="M6.54431 29.9917L8.22602 23.6444L11.0533 29.8139L8.87147 28.5503L6.54431 29.9917Z" fill="#3B6A91"/>
<path d="M36.5854 41.2973C13.9179 50.211 7.77173 28.334 7.77173 28.334C7.77173 28.334 7.96858 27.2566 9.39251 28.4296C18.5131 45.1788 29.7085 43.6812 36.5854 41.2973Z" fill="#3B6A91"/>
<path d="M41.2094 15.4544C40.7135 15.4544 40.2811 15.1643 40.0669 14.7393H41.2094L41.4078 14.3307H39.9359C39.926 14.2632 39.9201 14.1958 39.9201 14.1263C39.9201 14.0569 39.926 13.9894 39.9359 13.922H41.2094L41.4078 13.5134H40.0669C40.1755 13.2978 40.3395 13.1171 40.541 12.991C40.7424 12.8649 40.9737 12.7982 41.2094 12.7982C41.5288 12.7982 41.8224 12.9188 42.0485 13.119L42.3996 12.7574C42.0729 12.4545 41.6489 12.2871 41.2094 12.2874C40.4318 12.2874 39.7733 12.7982 39.5233 13.5134H38.8291L38.6307 13.922H39.4361C39.4242 13.9894 39.4242 14.0569 39.4242 14.1263C39.4242 14.1958 39.4242 14.2632 39.4361 14.3307H38.8291L38.6307 14.7393H39.5233C39.7733 15.4544 40.4318 15.9652 41.2094 15.9652C41.6676 15.9652 42.0842 15.7875 42.3996 15.4953L42.0465 15.1336C41.8224 15.3339 41.5308 15.4544 41.2094 15.4544Z" fill="#0D8478"/>
<path d="M30.8842 16.6657V15.6732H29.7718V15.177H30.8842V14.6808H29.7718V14.1846H30.6784L29.5494 12.1997H30.0777L31.1066 14.0109L32.1356 12.1997H32.6639L31.5349 14.1846H32.4415V14.6808H31.3291V15.177H32.4415V15.6732H31.3291V16.6657H30.8842Z" fill="#02C7B3"/>
<path d="M19.316 14.8649H19.7871C19.7871 15.1802 20.1098 15.4487 20.4937 15.4487C20.8777 15.4487 21.2004 15.1802 21.2004 14.8649C21.2004 14.5438 20.9554 14.4271 20.4372 14.2724C19.9378 14.1177 19.316 13.925 19.316 13.1136C19.316 12.5911 19.6622 12.1474 20.1404 11.9986V11.3622H20.8471V11.9986C21.3253 12.1474 21.6715 12.5911 21.6715 13.1136H21.2004C21.2004 12.7983 20.8777 12.5298 20.4937 12.5298C20.1098 12.5298 19.7871 12.7983 19.7871 13.1136C19.7871 13.4347 20.032 13.5514 20.5503 13.7061C21.0496 13.8608 21.6715 14.0535 21.6715 14.8649C21.6715 15.3874 21.3253 15.8311 20.8471 15.9799V16.6163H20.1404V15.9799C19.6622 15.8311 19.316 15.3874 19.316 14.8649Z" fill="#02C7B3"/>
<path d="M81.9545 21.2025C81.925 21.0774 81.8772 20.7314 81.8109 20.1646C81.752 19.6935 81.7005 19.3034 81.6563 18.9942C81.5901 19.3623 81.4944 19.7303 81.3692 20.0984C81.2515 20.4664 81.1006 20.8418 80.9165 21.2246L76.6876 29.8371L72.4586 21.048C72.282 20.6873 72.1274 20.3376 71.9949 19.999C71.8697 19.6604 71.7593 19.3255 71.6636 18.9942C71.6563 19.3328 71.6268 19.6898 71.5753 20.0652C71.5311 20.4333 71.4612 20.8198 71.3655 21.2246L69.632 29.1857H67.2138L71.0342 12.3361L75.8042 22.5386C75.8779 22.7005 75.9883 22.9692 76.1355 23.3446C76.2901 23.72 76.4741 24.1838 76.6876 24.7359C76.8422 24.2721 77.0851 23.6832 77.4163 22.9692C77.5047 22.7778 77.5709 22.6306 77.6151 22.5275L82.2747 12.3361L86.1834 29.1857H83.7432L81.9545 21.2025Z" fill="#001E37"/>
<path d="M89.8934 34.1102H87.4311L90.3019 28.2802L86.4594 18.7182H89.1095L91.0307 24.1396C91.1411 24.4709 91.2368 24.8095 91.3178 25.1555C91.4061 25.4941 91.476 25.84 91.5276 26.1934C91.6233 25.8253 91.8515 25.2401 92.2122 24.4377L92.2674 24.3052L94.8511 18.7182H97.4459L89.8934 34.1102Z" fill="#001E37"/>
<path d="M105.782 29.1857V13.0207H114.803V15.2511H108.41V19.2813H114.803V21.589H108.41V29.1857H105.782Z" fill="#001E37"/>
<path d="M125.69 23.985C125.69 23.0134 125.378 22.1926 124.752 21.5227C124.126 20.8455 123.361 20.5069 122.455 20.5069C121.557 20.5069 120.792 20.8455 120.159 21.5227C119.533 22.1926 119.22 23.0134 119.22 23.985C119.22 24.9567 119.533 25.7811 120.159 26.4584C120.792 27.1282 121.557 27.4632 122.455 27.4632C123.353 27.4632 124.115 27.1282 124.741 26.4584C125.374 25.7811 125.69 24.9567 125.69 23.985ZM116.692 23.963C116.692 23.1974 116.835 22.476 117.122 21.7988C117.417 21.1142 117.836 20.5069 118.381 19.9769C118.918 19.4543 119.537 19.0531 120.236 18.7734C120.935 18.4936 121.668 18.3538 122.433 18.3538C123.221 18.3538 123.961 18.4936 124.653 18.7734C125.352 19.0531 125.978 19.4653 126.53 20.01C127.082 20.5474 127.501 21.1547 127.788 21.8319C128.075 22.5091 128.219 23.2195 128.219 23.963C128.219 24.7359 128.075 25.4609 127.788 26.1382C127.509 26.8154 127.096 27.4153 126.552 27.938C125.978 28.49 125.341 28.9059 124.642 29.1857C123.942 29.4727 123.206 29.6163 122.433 29.6163C121.675 29.6163 120.946 29.4727 120.247 29.1857C119.548 28.9059 118.926 28.4974 118.381 27.96C117.829 27.4153 117.409 26.8043 117.122 26.1271C116.835 25.4499 116.692 24.7285 116.692 23.963Z" fill="#001E37"/>
<path d="M133.155 20.3855C133.412 19.6935 133.751 19.1819 134.17 18.8507C134.597 18.5194 135.124 18.3538 135.749 18.3538C136.088 18.3538 136.419 18.3943 136.743 18.4752C137.074 18.5562 137.398 18.674 137.715 18.8286L136.854 20.8602C136.648 20.713 136.423 20.6063 136.18 20.54C135.945 20.4664 135.68 20.4296 135.385 20.4296C134.59 20.4296 134.02 20.7498 133.674 21.3902C133.328 22.0233 133.155 23.0907 133.155 24.5923V29.1857H130.759V18.6961H133.155V20.3855Z" fill="#001E37"/>
<path d="M149.165 24.3052H140.795C140.854 25.2843 141.145 26.0498 141.668 26.6019C142.19 27.1466 142.886 27.419 143.755 27.419C144.528 27.419 145.172 27.257 145.687 26.9332C146.202 26.6093 146.651 26.0866 147.034 25.3652L149.055 26.4915C148.466 27.5441 147.737 28.3281 146.868 28.8434C146 29.3586 144.98 29.6163 143.81 29.6163C142.132 29.6163 140.795 29.1047 139.802 28.0815C138.808 27.0583 138.311 25.6928 138.311 23.985C138.311 22.3435 138.823 20.9964 139.846 19.9438C140.876 18.8838 142.198 18.3538 143.81 18.3538C145.496 18.3538 146.81 18.8359 147.752 19.8002C148.694 20.7646 149.165 22.1153 149.165 23.8525V24.3052ZM146.681 22.6932C146.585 21.9423 146.298 21.3718 145.819 20.9817C145.341 20.5842 144.686 20.3855 143.854 20.3855C143.066 20.3855 142.433 20.5768 141.955 20.9596C141.476 21.3424 141.141 21.9202 140.95 22.6932H146.681Z" fill="#001E37"/>
<path d="M152.389 29.1857H149.739L153.703 23.5544L150.313 18.7182H152.952L154.421 20.8823C154.575 21.1032 154.712 21.3166 154.829 21.5227C154.947 21.7289 155.054 21.9386 155.15 22.1521C155.238 21.9755 155.337 21.7914 155.448 21.6C155.566 21.4013 155.713 21.1547 155.889 20.8602L157.347 18.7182H159.964L156.574 23.5765L160.505 29.1857H157.888L155.945 26.4363L155.856 26.3038C155.481 25.737 155.238 25.3027 155.128 25.0009C154.98 25.2806 154.837 25.5419 154.697 25.7848C154.564 26.0204 154.428 26.2412 154.288 26.4473L152.389 29.1857Z" fill="#001E37"/>
<path d="M171.569 19.9107H172.043C173.435 19.9107 174.358 19.7487 174.815 19.4248C175.271 19.1009 175.499 18.5268 175.499 17.7023C175.499 16.8116 175.253 16.1859 174.76 15.8252C174.274 15.4572 173.368 15.2732 172.043 15.2732H171.569V19.9107ZM171.403 21.9534V29.1857H168.941V13.0207H172.607C173.681 13.0207 174.513 13.0906 175.102 13.2305C175.698 13.3703 176.206 13.6022 176.626 13.9261C177.126 14.3162 177.513 14.8205 177.785 15.4388C178.057 16.0571 178.194 16.7343 178.194 17.4705C178.194 18.766 177.881 19.7818 177.255 20.518C176.629 21.2467 175.706 21.6847 174.484 21.8319L180.049 29.1857H177.078L171.701 21.9534H171.403Z" fill="#001E37"/>
<path d="M190.869 29.1857H188.473V27.8275C188.046 28.4311 187.546 28.8802 186.972 29.1746C186.405 29.4691 185.753 29.6163 185.017 29.6163C183.538 29.6163 182.371 29.1121 181.517 28.1036C180.671 27.0877 180.247 25.7002 180.247 23.9409C180.247 22.2699 180.682 20.9228 181.55 19.8996C182.419 18.8691 183.553 18.3538 184.951 18.3538C185.805 18.3538 186.534 18.5341 187.137 18.8948C187.748 19.2482 188.194 19.7598 188.473 20.4296V18.7182H190.869V29.1857ZM188.54 23.9188C188.54 22.8367 188.286 21.9939 187.778 21.3902C187.277 20.7866 186.574 20.4848 185.669 20.4848C184.763 20.4848 184.049 20.7977 183.527 21.4234C183.011 22.0417 182.754 22.903 182.754 24.0071C182.754 25.1186 183.004 25.9762 183.505 26.5798C184.005 27.1834 184.712 27.4852 185.625 27.4852C186.486 27.4852 187.185 27.1577 187.723 26.5025C188.267 25.8474 188.54 24.9861 188.54 23.9188Z" fill="#001E37"/>
<path d="M194.745 29.1857V20.8161H192.912V18.7182H194.745V14.7542H197.141V18.7182H198.974V20.8161H197.141V29.1857H194.745Z" fill="#001E37"/>
<path d="M211.131 24.3052H202.761C202.82 25.2843 203.111 26.0498 203.634 26.6019C204.156 27.1466 204.852 27.419 205.72 27.419C206.493 27.419 207.138 27.257 207.653 26.9332C208.168 26.6093 208.617 26.0866 209 25.3652L211.02 26.4915C210.432 27.5441 209.703 28.3281 208.834 28.8434C207.966 29.3586 206.946 29.6163 205.776 29.6163C204.097 29.6163 202.761 29.1047 201.768 28.0815C200.774 27.0583 200.277 25.6928 200.277 23.985C200.277 22.3435 200.789 20.9964 201.812 19.9438C202.842 18.8838 204.164 18.3538 205.776 18.3538C207.461 18.3538 208.775 18.8359 209.718 19.8002C210.66 20.7646 211.131 22.1153 211.131 23.8525V24.3052ZM208.647 22.6932C208.551 21.9423 208.264 21.3718 207.785 20.9817C207.307 20.5842 206.652 20.3855 205.82 20.3855C205.032 20.3855 204.399 20.5768 203.921 20.9596C203.442 21.3424 203.107 21.9202 202.916 22.6932H208.647Z" fill="#001E37"/>
</svg>
