<svg width="22" height="22" viewBox="0 0 22 22" fill="none" xmlns="http://www.w3.org/2000/svg">
<path d="M11 8.77778C11.5107 8.77778 12.0164 8.67719 12.4882 8.48175C12.96 8.28632 13.3887 7.99987 13.7499 7.63875C14.111 7.27763 14.3974 6.84892 14.5929 6.3771C14.7883 5.90528 14.8889 5.39959 14.8889 4.88889C14.8889 4.37819 14.7883 3.8725 14.5929 3.40068C14.3974 2.92885 14.111 2.50015 13.7499 2.13903C13.3887 1.77791 12.96 1.49146 12.4882 1.29602C12.0164 1.10059 11.5107 1 11 1C9.9686 1 8.97945 1.40972 8.25014 2.13903C7.52083 2.86834 7.11111 3.85749 7.11111 4.88889C7.11111 5.92029 7.52083 6.90944 8.25014 7.63875C8.97945 8.36806 9.9686 8.77778 11 8.77778ZM1 20.3333V21H21V20.3333C21 17.8444 21 16.6 20.5156 15.6489C20.0895 14.8127 19.4096 14.1328 18.5733 13.7067C17.6222 13.2222 16.3778 13.2222 13.8889 13.2222H8.11111C5.62222 13.2222 4.37778 13.2222 3.42667 13.7067C2.59043 14.1328 1.91054 14.8127 1.48444 15.6489C1 16.6 1 17.8444 1 20.3333Z" stroke="#0D8478" stroke-width="2" stroke-linecap="round" stroke-linejoin="round"/>
</svg>
