<svg width="32" height="32" viewBox="0 0 32 32" fill="none" xmlns="http://www.w3.org/2000/svg">
<path fill-rule="evenodd" clip-rule="evenodd" d="M7.46561 1.36444C13.1377 0.736429 18.8618 0.736429 24.5339 1.36444C27.6744 1.71644 30.2081 4.18961 30.5766 7.34111C31.2488 13.0941 31.2488 18.9058 30.5766 24.6588C30.2081 27.8103 27.6744 30.2834 24.5339 30.6354C18.8618 31.2635 13.1377 31.2635 7.46561 30.6354C4.32511 30.2834 1.79144 27.8103 1.42294 24.6588C0.750945 18.9064 0.750945 13.0953 1.42294 7.34294C1.60934 5.81187 2.30731 4.38861 3.40374 3.30383C4.50017 2.21904 5.9308 1.53631 7.46378 1.36628M15.9998 6.84611C16.3645 6.84611 16.7142 6.99098 16.972 7.24884C17.2299 7.5067 17.3748 7.85644 17.3748 8.22111V14.6249H23.7786C24.1433 14.6249 24.493 14.7698 24.7509 15.0277C25.0087 15.2855 25.1536 15.6353 25.1536 15.9999C25.1536 16.3646 25.0087 16.7144 24.7509 16.9722C24.493 17.2301 24.1433 17.3749 23.7786 17.3749H17.3748V23.7788C17.3748 24.1434 17.2299 24.4932 16.972 24.7511C16.7142 25.0089 16.3645 25.1538 15.9998 25.1538C15.6351 25.1538 15.2854 25.0089 15.0275 24.7511C14.7696 24.4932 14.6248 24.1434 14.6248 23.7788V17.3749H8.22095C7.85627 17.3749 7.50654 17.2301 7.24867 16.9722C6.99081 16.7144 6.84595 16.3646 6.84595 15.9999C6.84595 15.6353 6.99081 15.2855 7.24867 15.0277C7.50654 14.7698 7.85627 14.6249 8.22095 14.6249H14.6248V8.22111C14.6248 7.85644 14.7696 7.5067 15.0275 7.24884C15.2854 6.99098 15.6351 6.84611 15.9998 6.84611Z" fill="#02C7B3"/>
</svg>
