<svg width="40" height="40" viewBox="0 0 40 40" fill="none" xmlns="http://www.w3.org/2000/svg">
<path d="M4.16699 5.00331H35.8337M7.50033 5.00331V23.3333C7.50033 27.215 8.21699 28.4833 11.547 30.48L16.5703 33.4933C18.242 34.5 19.077 35 20.0003 35C20.9237 35 21.7587 34.4983 23.4303 33.495L28.4553 30.48C31.782 28.4833 32.5003 27.2166 32.5003 23.335V5.00165" stroke="#0D8478" stroke-width="2" stroke-linecap="round" stroke-linejoin="round"/>
<path d="M21.0082 13.3417L22.0332 15.4133C22.1202 15.5685 22.2389 15.7037 22.3816 15.8099C22.5244 15.9162 22.6879 15.9912 22.8615 16.03L24.7232 16.3417C25.9132 16.5417 26.1932 17.4117 25.3348 18.27L23.8882 19.7283C23.7611 19.8721 23.6678 20.0426 23.6153 20.2272C23.5629 20.4118 23.5524 20.6058 23.5848 20.795L23.9998 22.5983C24.3265 24.0283 23.5732 24.5817 22.3198 23.8333L20.5765 22.7933C20.3982 22.7004 20.2001 22.6519 19.999 22.6519C19.7979 22.6519 19.5998 22.7004 19.4215 22.7933L17.6765 23.8333C16.4282 24.58 15.6698 24.0217 15.9965 22.6L16.4115 20.7933C16.4437 20.6044 16.4331 20.4107 16.3806 20.2264C16.3281 20.0422 16.235 19.872 16.1082 19.7283L14.6615 18.27C13.8098 17.4117 14.0832 16.5417 15.2732 16.3417L17.1348 16.03C17.3073 15.9903 17.4695 15.9149 17.611 15.8087C17.7525 15.7025 17.8702 15.5678 17.9565 15.4133L18.9832 13.3417C19.5432 12.22 20.4548 12.22 21.0082 13.3417Z" stroke="#0D8478" stroke-width="2" stroke-linecap="round" stroke-linejoin="round"/>
</svg>
